<svg width="228" height="74" viewBox="0 0 228 74" fill="none" xmlns="http://www.w3.org/2000/svg">
<path d="M199.429 2.89191C194.628 4.46421 190.641 5.89612 190.585 6.03651C190.529 6.20497 194.797 7.74919 200.047 9.48995L209.593 12.6346L216.921 10.1357C220.936 8.75995 224.305 7.55265 224.39 7.46842C224.474 7.38419 224.67 7.38419 224.783 7.46842C224.923 7.55265 225.035 8.56342 225.035 9.74264C225.035 11.2026 224.895 12.073 224.558 12.6626C224.249 13.168 223.969 14.7684 223.716 17.1549C223.519 19.2045 223.407 20.9453 223.491 21.0295C223.575 21.0857 224.081 21.0014 224.614 20.8049C225.4 20.5241 225.794 20.5241 226.58 20.8049C227.113 21.0014 227.647 21.0857 227.731 20.9734C227.843 20.861 227.787 19.9064 227.59 18.8395C227.422 17.7445 227.282 16.1441 227.282 15.2738C227.282 14.0103 227.141 13.5049 226.692 13.0276C226.215 12.5222 226.102 11.9326 225.962 9.7988L225.822 7.15958L227.029 6.6542C227.815 6.34535 228.124 6.06458 227.955 5.89612C227.815 5.75574 223.688 4.3519 218.774 2.80768C213.889 1.26346 209.509 0 209.032 0C208.582 0 204.259 1.29153 199.429 2.89191Z" fill="#FF5700"/>
<path d="M5.75574 1.51616C4.3519 2.02154 3.48152 2.555 2.55499 3.45345C1.88114 4.15537 1.01076 5.39075 0.645766 6.20498L0 7.72112V29.7614V51.8017L0.87038 54.6936C1.37576 56.4063 2.33037 58.6524 3.22883 60.3089C4.43613 62.4428 5.36267 63.6501 7.58073 65.8962C10.1638 68.4793 10.7253 68.9004 13.9822 70.585C16.7338 72.017 18.1657 72.5785 20.2153 73.0277C22.1526 73.4208 23.8933 73.5892 26.3922 73.5892C28.6664 73.5612 30.6598 73.3927 32.0918 73.0839C33.271 72.8031 35.6575 71.9327 37.3702 71.1185C39.6163 70.0797 41.2167 69.0689 42.9855 67.6089C44.8667 66.0647 46.0178 64.8012 47.6182 62.5551C49.1344 60.4212 50.0609 58.7647 50.7909 56.8836C51.4647 55.0867 51.942 53.1774 52.2509 51.0436C52.5597 48.9098 52.6159 47.0567 52.5036 45.344C52.3913 43.9402 51.9701 41.6379 51.549 40.1498C51.0997 38.6898 50.089 36.3033 49.3028 34.8152C48.2078 32.8498 47.169 31.4741 45.3159 29.5649C43.6032 27.7679 42.0309 26.4764 40.2621 25.3814C38.8583 24.511 36.6964 23.4441 35.4891 22.9949C34.2817 22.5457 31.9514 21.9841 30.3229 21.7595C28.4137 21.4787 26.4764 21.3945 24.8199 21.5068C23.388 21.5911 21.3384 21.8999 20.2153 22.2087C19.0922 22.4895 17.9972 22.7984 17.7164 22.9107C17.2953 23.0791 17.2672 22.4334 17.2672 15.5265C17.2672 8.08612 17.2672 7.94574 16.5653 6.26113C16.088 5.13806 15.4142 4.1273 14.5718 3.36922C13.8699 2.72346 12.7469 1.96538 12.0449 1.65654C11.3711 1.37577 10.1076 1.06693 9.26534 0.982698C8.08611 0.87039 7.27189 1.01077 5.75574 1.51616Z" fill="#FF5700"/>
<path d="M219.083 15.7791C219.139 15.6668 219.167 15.5826 219.167 15.5264C219.139 15.3299 219.139 14.2068 219.139 13.0276C219.139 11.9607 219.139 11.4272 219.027 11.1745C218.943 11.0061 218.802 11.0061 218.578 11.0622C218.269 11.1465 216.247 11.8765 214.085 12.6345C211.924 13.4207 209.846 14.0384 209.509 14.0384C209.144 14.0384 206.673 13.3084 204.034 12.4099L199.261 10.7815L199.149 11.5115C199.092 11.9045 199.036 13.0276 199.064 14.0384C199.064 15.4984 199.177 16.0037 199.71 16.6495C200.047 17.0707 200.833 17.6603 201.451 17.9691C202.125 18.306 203.894 18.6991 205.803 18.9518C208.33 19.2887 209.649 19.3168 211.839 19.0922C213.384 18.9518 215.349 18.5587 216.163 18.2218C217.09 17.8849 218.016 17.2953 218.437 16.7618C218.718 16.4249 218.971 16.0318 219.083 15.7791Z" fill="#FF5700"/>
<path d="M219.083 15.7792L219.28 13.4769L219.027 11.1746C219.139 11.4273 219.139 11.9607 219.139 13.0276C219.139 14.2069 219.139 15.3299 219.167 15.5265C219.167 15.5826 219.139 15.6668 219.083 15.7792Z" fill="#FF5700"/>
<path d="M123.089 37.4263L126.626 37.4825L126.037 38.3248C125.728 38.8021 121.994 43.2663 117.782 48.292C113.543 53.3178 109.415 58.4839 108.601 59.7754C107.338 61.7408 107.057 62.4427 106.804 64.1273C106.58 65.7277 106.58 66.4296 106.945 67.665C107.225 68.7319 107.759 69.6584 108.545 70.585C109.219 71.343 110.37 72.2696 111.128 72.6627L112.532 73.3365L128.788 73.3084C142.069 73.2803 145.241 73.1961 145.999 72.8873C146.533 72.6627 147.516 71.9607 148.189 71.343C148.891 70.6692 149.706 69.5461 150.071 68.7319C150.576 67.5808 150.66 66.8788 150.576 65.2785C150.492 63.6219 150.323 63.0042 149.621 61.8531C149.088 60.9827 148.189 60.0843 147.263 59.4946L145.803 58.54L137.548 58.4558C133 58.3997 129.294 58.3435 129.294 58.3154C129.294 58.2873 133.674 53.1493 139.036 46.8882C144.371 40.6271 149.116 34.8994 149.537 34.1132C149.986 33.3552 150.492 31.9513 150.66 30.9967C150.913 29.5367 150.885 29.0313 150.407 27.5152C150.099 26.5044 149.481 25.2691 148.947 24.6233C148.414 24.0056 147.319 23.1352 146.477 22.7141L144.961 21.8998H128.704H112.448L111.1 22.5737C110.342 22.9387 109.219 23.8091 108.573 24.4829C107.955 25.1848 107.253 26.336 107.001 27.066C106.748 27.796 106.552 29.0033 106.552 29.7613C106.552 30.7159 106.804 31.7267 107.366 32.9621C107.899 34.0852 108.601 35.0678 109.303 35.6013C109.893 36.0786 110.735 36.6401 111.184 36.8367C111.746 37.0894 114.132 37.2298 119.298 37.3421L123.089 37.4263Z" fill="#FF5700"/>
<path d="M157.876 22.7983C156.5 23.5283 155.854 24.0898 155.012 25.3252C154.085 26.701 153.917 27.1783 153.776 28.8629C153.692 30.2386 153.776 31.2213 154.113 32.2321C154.394 33.0182 155.096 34.1975 155.686 34.8994C156.303 35.5732 157.258 36.3875 157.848 36.6682C158.774 37.1455 159.813 37.2298 166.411 37.3421L173.907 37.4825L165.372 47.5901C159.813 54.1601 156.303 58.54 155.377 60.1123C154.085 62.2742 153.917 62.7516 153.776 64.5485C153.692 65.7277 153.776 67.0473 154.001 67.7492C154.169 68.4231 154.759 69.5742 155.264 70.2761C155.826 71.0342 156.837 71.9046 157.707 72.41L159.223 73.2803L175.508 73.3365L191.792 73.4207L193.449 72.5784C194.572 72.0169 195.47 71.2869 196.2 70.3323C197.015 69.2934 197.38 68.4792 197.604 67.2158C197.857 65.9804 197.857 65.11 197.632 63.9869C197.38 62.8358 197.015 62.1339 196.116 61.095C195.442 60.365 194.375 59.4666 193.758 59.1296C192.691 58.5681 192.101 58.54 184.577 58.3997L176.547 58.2593L186.065 47.0286C192.522 39.3917 195.948 35.1521 196.678 33.7763C197.689 31.9794 197.801 31.5302 197.801 29.8456C197.801 28.4417 197.632 27.5714 197.127 26.5325C196.79 25.7744 195.892 24.5952 195.162 23.9214C194.432 23.2475 193.337 22.5175 192.691 22.2929C191.764 21.9841 188.76 21.8998 175.592 21.8998H159.616L157.876 22.7983Z" fill="#FF5700"/>
<path d="M63.3132 38.6336V54.1039L64.1275 55.2269C64.5767 55.8727 65.4751 56.6027 66.0928 56.8835C66.7386 57.1923 68.6478 57.81 70.3605 58.2592C72.9997 58.9892 73.7859 59.3262 75.6109 60.6458C76.7901 61.4881 78.1658 62.6954 78.6151 63.3131C79.0924 63.9307 79.5135 64.4642 79.5978 64.5204C79.682 64.5484 79.2047 63.0323 78.5308 61.1231C77.8851 59.2419 76.9305 55.7323 76.4532 53.3458C75.6109 49.1062 75.5828 48.7131 75.4143 39.0266L75.2459 29.0594L73.8982 27.6836C73.1682 26.9536 71.5959 25.8306 70.4447 25.2409C69.0128 24.4829 67.4686 23.9775 65.8121 23.6687L63.3132 23.1913V38.6336Z" fill="#FF5700"/>
<path d="M93.0745 23.9495C91.3899 24.3426 89.8737 24.9603 88.6103 25.7464C87.5433 26.3641 86.2518 27.4591 85.7464 28.1329L84.7918 29.3402L84.6234 39.0267C84.4549 48.2921 84.3987 48.9098 83.5845 53.0651C83.1072 55.4516 82.293 58.8489 81.7314 60.5897C81.198 62.3024 80.7768 63.7343 80.8049 63.7343C80.8611 63.7343 81.5349 63.1166 82.3491 62.3585C83.1353 61.5724 84.6795 60.4493 85.7464 59.8316C87.0941 59.0455 88.6664 58.4559 90.6037 58.0066C92.2322 57.6136 93.9448 56.9959 94.5906 56.5747C95.2364 56.1536 95.9664 55.3113 96.3595 54.5532C96.9771 53.2897 97.0052 53.037 97.0052 46.3267C97.0052 42.5083 96.921 35.7698 96.8087 31.3618C96.6402 23.781 96.6121 23.3037 96.1068 23.3037C95.826 23.3037 94.4502 23.5845 93.0745 23.9495Z" fill="#FF5700"/>
<path d="M206.224 24.4268C205.297 24.9041 204.062 25.8026 203.5 26.4484C202.939 27.0941 202.237 28.2172 201.956 28.9753C201.479 30.2387 201.451 31.5583 201.451 48.6571V67.0193L202.097 68.5355C202.462 69.4058 203.276 70.6131 203.978 71.287C204.764 72.0451 205.747 72.6627 206.814 72.9997C207.768 73.3366 209.2 73.5612 210.295 73.5612C211.755 73.5612 212.457 73.3927 213.805 72.747C214.928 72.1854 215.826 71.4554 216.584 70.5008C217.202 69.7428 217.904 68.4512 218.128 67.637C218.522 66.3736 218.578 63.6782 218.578 48.6852C218.578 34.001 218.522 30.9687 218.157 29.7614C217.932 28.9753 217.342 27.768 216.865 27.0661C216.36 26.3361 215.321 25.3815 214.338 24.7918C212.822 23.8653 212.457 23.753 210.295 23.6688C208.105 23.5845 207.768 23.6688 206.224 24.4268Z" fill="#FF5700"/>
<path d="M58.3435 27.4591L57.1362 27.5433V46.3548C57.1362 62.1058 57.1924 65.3066 57.5293 66.1208C57.7539 66.6543 58.4278 67.4685 59.0455 67.8897C60.0562 68.6477 60.337 68.7039 63.7062 68.8443C66.7666 68.9847 67.6931 69.1531 70.2481 69.9954C72.4381 70.6973 73.7577 71.3431 75.2738 72.41L77.3234 73.87L80.2153 73.7858L83.1073 73.7016L85.4376 72.1012C87.1503 70.8939 88.3576 70.3043 90.1264 69.7708C91.8672 69.2654 93.4395 69.0408 95.8822 68.9285C97.7914 68.8443 99.6726 68.6197 100.206 68.395C100.711 68.1704 101.498 67.5247 101.947 66.9351L102.761 65.8401L102.845 46.6917L102.929 27.5153H101.638H100.374L100.318 46.1302L100.234 64.717L99.6164 65.3908C99.0268 66.0366 98.7179 66.1208 95.3207 66.3174C92.7095 66.4858 91.0249 66.7385 89.4245 67.2439C88.1892 67.637 85.9711 68.5916 84.5111 69.3497C82.0403 70.6412 81.6753 70.7535 79.9065 70.7535C78.0815 70.7535 77.8007 70.6693 75.5827 69.4058C74.2911 68.6477 72.1292 67.7212 70.7815 67.3001C69.0127 66.7385 67.4123 66.4858 64.745 66.3174C61.797 66.1489 60.9827 66.0085 60.5335 65.5874C59.9439 65.0539 59.9439 64.9135 59.9439 46.2986C59.9439 35.9944 59.8597 27.5153 59.7474 27.4591C59.607 27.403 58.9893 27.403 58.3435 27.4591Z" fill="#FF5700"/>
<path d="M123.089 37.4263L123.229 37.5386C123.313 37.6509 124.127 37.679 125.026 37.5948L126.626 37.4825L123.089 37.4263Z" fill="white"/>
<path d="M23.388 39.5321C22.6019 39.7848 21.3384 40.5428 20.5523 41.2167C19.7942 41.8905 18.8677 43.0417 18.4746 43.7998C18.0815 44.5859 17.7165 45.8494 17.6323 46.804C17.52 47.927 17.6323 48.994 17.9411 50.0328C18.25 51.0997 18.7834 52.0543 19.6538 53.0089C20.4119 53.8512 21.6192 54.7778 22.5457 55.227C23.8653 55.8728 24.5111 56.0132 26.2519 56.0132C27.8803 56.0132 28.6945 55.8447 29.8457 55.3393C30.7441 54.9182 31.8391 54.1039 32.7095 53.1493C33.6361 52.1386 34.2537 51.1559 34.5345 50.2013C34.7591 49.387 34.9557 48.2359 34.9557 47.5901C34.9557 46.9444 34.7591 45.7651 34.5064 44.9509C34.1695 43.7998 33.6922 43.0698 32.4007 41.8063C31.1372 40.5428 30.3511 40.0094 29.0595 39.5882C28.133 39.2794 26.8134 39.0267 26.1115 39.0267C25.4096 39.0267 24.2023 39.2513 23.388 39.5321Z" fill="white"/>
<path d="M63.0323 60.5055C63.0323 61.8531 63.1447 62.9481 63.3412 63.0324C63.4816 63.1447 64.8854 63.3412 66.4296 63.4816C68.2546 63.622 70.0515 63.987 71.6238 64.5485C72.9715 64.9977 74.7965 65.812 75.695 66.3454C76.6215 66.8508 77.3515 67.2158 77.3515 67.1596C77.3515 67.0754 76.8461 66.3454 76.2284 65.5031C75.5265 64.6047 74.3192 63.5377 73.1681 62.7797C71.7642 61.8812 70.4727 61.3478 68.395 60.8143C66.2612 60.2808 65.2223 59.8316 64.2958 59.1016L63.0323 58.1189V60.5055Z" fill="#FF5700"/>
<path d="M82.2649 67.4684C82.3491 67.3842 83.6687 66.7104 85.241 65.9242C87.3468 64.8573 88.8629 64.2958 90.6598 63.9588C92.0637 63.6781 93.7202 63.4534 94.366 63.4534C95.0398 63.4534 95.8821 63.3411 96.2752 63.1727C96.9771 62.92 97.0052 62.8077 97.0052 60.6458C97.0052 59.4104 96.9771 58.3996 96.921 58.3996C96.8648 58.3996 96.3594 58.7646 95.7979 59.2419C95.0398 59.8315 94.0571 60.2246 92.2321 60.6458C90.8283 60.9546 89.0314 61.5161 88.1891 61.8811C87.3468 62.2461 86.0553 63.1165 85.3253 63.7904C84.5953 64.4361 83.6126 65.5592 83.1072 66.2611C82.658 66.9069 82.321 67.4123 82.2649 67.4684Z" fill="#FF5700"/>
</svg>